<?xml version="1.0" standalone="no"?>
<!DOCTYPE svg PUBLIC "-//W3C//DTD SVG 20010904//EN"
 "http://www.w3.org/TR/2001/REC-SVG-20010904/DTD/svg10.dtd">
<svg version="1.0" xmlns="http://www.w3.org/2000/svg"
 width="200.000000pt" height="200.000000pt" viewBox="0 0 200.000000 200.000000"
 preserveAspectRatio="xMidYMid meet">
<metadata>
Created by potrace 1.14, written by Peter Selinger 2001-2017
</metadata>
<g transform="translate(0.000000,200.000000) scale(0.100000,-0.100000)"
fill="#000000" stroke="none">
<path d="M78 1438 c-2 -310 -3 -680 -3 -823 0 -151 -4 -262 -9 -265 -5 -3 -22
20 -37 50 l-28 55 -1 -227 0 -228 1000 0 1000 0 0 1000 0 1000 -770 0 c-638 0
-770 -2 -770 -13 0 -14 -31 -47 -42 -47 -4 0 -9 14 -13 30 l-7 30 -159 0 -159
0 -2 -562z"/>
</g>
</svg>
